<?php
header('Content-type: image/svg+xml');
echo '<?xml version="1.0" encoding="utf-8"?>';
?>

<!-- License Agreement at http://iconmonstr.com/license/ -->

<!DOCTYPE svg PUBLIC "-//W3C//DTD SVG 1.1//EN" "http://www.w3.org/Graphics/SVG/1.1/DTD/svg11.dtd">
<svg title="debugger" version="1.1" xmlns="http://www.w3.org/2000/svg" xmlns:xlink="http://www.w3.org/1999/xlink" style="margin: auto;display: block;" x="0px" y="0px"
                 width="30px" height="30px" viewBox="0 0 512 512" enable-background="new 0 0 512 512" xml:space="preserve">
<path style="fill: green" id="bug-4-icon" d="M376.865,292.233c-46.756,0-84.659,37.903-84.659,84.658c0,46.756,37.903,84.659,84.659,84.659
	s84.659-37.903,84.659-84.659C461.524,330.137,423.621,292.233,376.865,292.233z M362.462,422.492l-39.997-40.008l17.03-17.034
	l22.967,22.973l53.021-53.021l17.038,17.026L362.462,422.492z M290.645,452.388c-11.345,4.7-23.819,8.076-37.388,9.612
	c-50.541-5.72-86.029-36.848-103.682-67.685c-3.592-6.271-10.033-6.793-15.223-4.444l-43.265,19.572
	c-8.949,4.049-19.509,0.085-23.564-8.885c-4.054-8.961-0.076-19.511,8.885-23.564l40.897-18.501
	c8.84-4.001,14.595-12.598,12.688-25.093c-1.785-11.751-11.693-18.135-21.367-18.135H68.284c-9.836,0-17.809-7.973-17.809-17.808
	s7.973-17.808,17.809-17.808h40.595c9.339,0,19.079-6.056,20.876-19.067c1.378-9.952-4.678-18.564-13.059-21.869l-37.71-14.871
	c-9.15-3.608-13.642-13.95-10.033-23.1c3.607-9.149,13.949-13.642,23.099-10.033l38.775,15.291
	c4.984,1.967,12.072,1.315,15.911-7.512c3.722-8.557,7.923-16.558,12.563-23.836c34.631,15.594,64.296,23.389,93.957,23.389
	c29.668,0,59.331-7.799,93.953-23.389c4.752,7.453,9.044,15.665,12.831,24.455c3.237,7.516,10.098,9.08,15.645,6.893l38.775-15.291
	c9.148-3.608,19.49,0.884,23.098,10.033c3.608,9.149-0.883,19.491-10.033,23.1l-37.71,14.871
	c-9.103,3.59-14.626,12.538-12.804,23.521c-0.05,0-0.099-0.002-0.148-0.002c-63.224,0-114.659,51.436-114.659,114.658
	C262.206,405.78,272.949,432.203,290.645,452.388z M170.025,74.168c0-13.347,10.821-24.168,24.168-24.168
	c15.931,0,27.49,15.162,23.331,30.495c-1.564,5.772-0.724,11.932,2.332,17.074c6.774,11.4,18.315,18.42,33.4,18.499
	c14.877-0.079,26.57-7.004,33.4-18.499c3.056-5.143,3.896-11.302,2.332-17.074C284.836,65.182,296.368,50,312.32,50
	c13.347,0,24.168,10.821,24.168,24.168c0,11.587-8.134,21.188-18.88,23.591c-5.439,1.215-10.136,4.62-12.983,9.411
	c-10.979,18.478,4.957,34.719,17.915,51.213c-39.593,20.71-98.974,20.71-138.566,0c13.159-16.749,28.975-32.598,17.916-51.213
	c-2.849-4.791-7.544-8.196-12.984-9.411C178.158,95.356,170.025,85.755,170.025,74.168z"/>
</svg>