<?php
header('Content-type: image/svg+xml');
echo '<?xml version="1.0" encoding="utf-8"?>';
?>

<!-- License Agreement at http://iconmonstr.com/license/ -->

<!DOCTYPE svg PUBLIC "-//W3C//DTD SVG 1.1//EN" "http://www.w3.org/Graphics/SVG/1.1/DTD/svg11.dtd">
 <svg title="debugger" version="1.1" xmlns="http://www.w3.org/2000/svg" xmlns:xlink="http://www.w3.org/1999/xlink" style="margin: auto;display: block;" x="0px" y="0px"
                 width="30px" height="30px" viewBox="0 0 512 512" enable-background="new 0 0 512 512" xml:space="preserve">
<path style="fill: orange" id="bug-5-icon" d="M290.644,452.388c-11.344,4.7-23.818,8.076-37.387,9.612c-50.541-5.72-86.029-36.848-103.682-67.685
	c-3.592-6.271-10.033-6.793-15.223-4.444l-43.266,19.572c-8.949,4.049-19.508,0.085-23.564-8.885
	c-4.053-8.961-0.076-19.511,8.885-23.564l40.898-18.501c8.84-4.001,14.594-12.598,12.688-25.093
	c-1.785-11.751-11.693-18.135-21.367-18.135H68.284c-9.836,0-17.809-7.973-17.809-17.808s7.973-17.808,17.809-17.808h40.594
	c9.34,0,19.08-6.056,20.877-19.067c1.377-9.952-4.678-18.564-13.059-21.869l-37.711-14.871c-9.15-3.608-13.641-13.95-10.033-23.1
	s13.949-13.642,23.1-10.033l38.775,15.291c4.984,1.967,12.072,1.315,15.91-7.512c3.723-8.557,7.924-16.558,12.564-23.836
	c34.631,15.594,64.295,23.389,93.957,23.389c29.668,0,59.33-7.799,93.953-23.389c4.752,7.453,9.043,15.665,12.83,24.455
	c3.238,7.516,10.098,9.08,15.645,6.893l38.775-15.291c9.148-3.608,19.49,0.884,23.098,10.033c3.609,9.149-0.883,19.491-10.033,23.1
	l-37.709,14.871c-9.104,3.59-14.627,12.538-12.805,23.521c-0.049,0-0.098-0.002-0.148-0.002
	c-63.223,0-114.658,51.436-114.658,114.658C262.206,405.78,272.948,432.203,290.644,452.388z M170.024,74.168
	c0-13.347,10.822-24.168,24.168-24.168c15.932,0,27.49,15.162,23.332,30.495c-1.564,5.772-0.725,11.932,2.332,17.074
	c6.773,11.4,18.314,18.42,33.4,18.499c14.877-0.079,26.57-7.004,33.4-18.499c3.055-5.143,3.896-11.302,2.332-17.074
	C284.835,65.182,296.368,50,312.319,50c13.348,0,24.168,10.821,24.168,24.168c0,11.587-8.133,21.188-18.879,23.591
	c-5.439,1.215-10.137,4.62-12.984,9.411c-10.979,18.478,4.957,34.719,17.916,51.213c-39.594,20.71-98.975,20.71-138.566,0
	c13.158-16.749,28.975-32.598,17.916-51.213c-2.85-4.791-7.545-8.196-12.984-9.411C178.157,95.356,170.024,85.755,170.024,74.168z
	 M376.864,292.233c-46.754,0-84.66,37.903-84.66,84.66c0,46.754,37.906,84.657,84.66,84.657c46.756,0,84.66-37.903,84.66-84.657
	C461.524,330.137,423.62,292.233,376.864,292.233z M408.972,427.255l-31.695-31.693l-31.695,31.696l-17.023-17.033l31.689-31.693
	l-31.693-31.69l17.033-17.023l31.688,31.683l31.682-31.687l17.037,17.026l-31.688,31.69l31.693,31.686L408.972,427.255z"/>
</svg>