<?php
header('Content-type: image/svg+xml');
echo '<?xml version="1.0" encoding="utf-8"?>';
?>

<!-- License Agreement at http://iconmonstr.com/license/ -->

<!DOCTYPE svg PUBLIC "-//W3C//DTD SVG 1.1//EN" "http://www.w3.org/Graphics/SVG/1.1/DTD/svg11.dtd">
<svg title="Temps cpu" version="1.1" xmlns="http://www.w3.org/2000/svg" xmlns:xlink="http://www.w3.org/1999/xlink" x="0px" y="0px"

                         style="display: block;margin: auto 0;" width="25px" height="25px" viewBox="0 0 512 512" enable-background="new 0 0 512 512" xml:space="preserve">

<path style="fill: red" id="dashboard-5-icon" d="M393.702,260.194c-2.425-7.329-5.401-14.488-8.863-21.32l-42.122,18.99

	c3.721,6.752,6.697,13.905,8.87,21.316L393.702,260.194z M177.864,244.682c4.654-6.067,9.948-11.58,15.771-16.429l-32.441-33.791

	c-5.636,5.04-10.932,10.555-15.771,16.428L177.864,244.682z M207.291,218.688c6.513-3.792,13.414-6.808,20.566-8.989l-17.744-44.088

	c-7.045,2.433-13.949,5.453-20.565,8.992L207.291,218.688z M159.935,280.747c2.064-7.466,4.931-14.667,8.542-21.464l-42.396-18.298

	c-3.373,6.915-6.242,14.118-8.549,21.46L159.935,280.747z M321.896,174.324c-6.64-3.516-13.556-6.506-20.599-8.908l-17.575,44.166

	c7.163,2.151,14.076,5.138,20.602,8.9L321.896,174.324z M366.537,210.89c-4.837-5.873-10.134-11.388-15.771-16.428l-32.44,33.791

	c5.824,4.849,11.116,10.361,15.771,16.429L366.537,210.89z M267.133,158.372c-3.763-0.299-7.506-0.449-11.152-0.449

	c-3.646,0-7.39,0.15-11.151,0.449v47.785c3.702-0.43,7.443-0.646,11.151-0.646s7.45,0.216,11.152,0.646V158.372z M256,394.961

	c-22.214,0-40.223-18.01-40.223-40.224c0-15.16,8.391-28.356,20.778-35.213L256,228.389l19.444,91.136

	c12.388,6.856,20.779,20.053,20.779,35.213C296.224,376.951,278.214,394.961,256,394.961z M77.64,404.487

	C60.07,374.175,50,338.998,50,301.512c0-113.589,92.411-206,206-206s206,92.411,206,206c0,37.486-10.07,72.663-27.64,102.977

	l-34.734-20.054c14.147-24.41,22.257-52.737,22.257-82.923c0-91.469-74.414-165.884-165.883-165.884S90.117,210.043,90.117,301.512

	c0,30.186,8.109,58.513,22.257,82.923L77.64,404.487z"/>

</svg>