<?php
header('Content-type: image/svg+xml');
echo '<?xml version="1.0" encoding="utf-8"?>';
?>
<!-- License Agreement at http://iconmonstr.com/license/ -->

<!DOCTYPE svg PUBLIC "-//W3C//DTD SVG 1.1//EN" "http://www.w3.org/Graphics/SVG/1.1/DTD/svg11.dtd">
<svg  version="1.1" xmlns="http://www.w3.org/2000/svg" xmlns:xlink="http://www.w3.org/1999/xlink" x="0px" y="0px"
                         width="512px" height="512px" viewBox="0 0 512 512" enable-background="new 0 0 512 512" xml:space="preserve">
<path <?php echo isset($_GET["color"]) == true ? 'style="fill: '.$_GET["color"].';"':"";?>  id="loading-10-icon" d="M303.5,92.984c0,22.092-17.908,40-40,40s-40-17.908-40-40s17.908-40,40-40S303.5,70.893,303.5,92.984z
                                                                                            	 M263.5,389.016c-19.33,0-35,15.67-35,35s15.67,35,35,35s35-15.67,35-35S282.83,389.016,263.5,389.016z M429.016,283.5
                                                                                            	c-13.808,0-25-11.192-25-25s11.192-25,25-25s25,11.192,25,25S442.823,283.5,429.016,283.5z M137.984,258.5c0-22.092-17.908-40-40-40
                                                                                            	s-40,17.908-40,40s17.908,40,40,40S137.984,280.592,137.984,258.5z M174.748,113.179c15.621,15.621,15.621,40.947,0,56.568
                                                                                            	c-15.622,15.621-40.948,15.621-56.569,0c-15.622-15.621-15.622-40.947,0-56.569C133.8,97.557,159.126,97.557,174.748,113.179z
                                                                                            	 M359.325,354.324c-11.717,11.716-11.717,30.71-0.001,42.426s30.71,11.716,42.427,0c11.716-11.716,11.716-30.71,0-42.426
                                                                                            	S371.041,342.608,359.325,354.324z M394.681,155.605c-7.811,7.81-20.475,7.81-28.285,0c-7.811-7.812-7.811-20.475,0-28.284
                                                                                            	c7.811-7.812,20.474-7.812,28.285,0C402.491,135.131,402.491,147.795,394.681,155.605z M174.748,347.253
                                                                                            	c-15.622-15.622-40.947-15.621-56.569,0c-15.621,15.621-15.622,40.947,0,56.568c15.621,15.621,40.947,15.621,56.568,0
                                                                                            	C190.369,388.2,190.369,362.874,174.748,347.253z"/>
                                                                                            </svg>
