<?php
header('Content-type: image/svg+xml');
echo '<?xml version="1.0" encoding="utf-8"?>';
?>

<!-- License Agreement at http://iconmonstr.com/license/ -->

<!DOCTYPE svg PUBLIC "-//W3C//DTD SVG 1.1//EN" "http://www.w3.org/Graphics/SVG/1.1/DTD/svg11.dtd">
<svg version="1.1" xmlns="http://www.w3.org/2000/svg" xmlns:xlink="http://www.w3.org/1999/xlink" x="0px" y="0px"
	 width="512px" height="512px" viewBox="0 0 512 512" enable-background="new 0 0 512 512" xml:space="preserve">
<path <?php echo isset($_GET["color"]) == true ? 'style="fill: '.$_GET["color"].';"':"";?> id="logout-4-icon" d="M411.083,312.44v-31.144h-56.381c-12.786,0-19.362-4.456-24.911-12.116l-29.344-39.51l-47.9,51.903
	l25.912,36.896c8.2,12.921,8.824,21.736,8.824,33.507v82.796h-46.326v-76.801c-0.353-25.959-39.657-48.072-56.708-29.583
	l-27.76,30.102c-6.922,7.506-16.665,11.775-26.875,11.777L50,370.282v-45.007l59.786-0.053c9.348-0.009,17.859-5.389,21.878-13.829
	l26.603-55.876c4.604-9.671,10.852-18.47,18.463-26.006l61.95-61.338l-17.519-15.297c-5.249-4.583-12.287-6.547-19.15-5.345
	l-51.48,9.021l-8.081-37.78l70.634-13.471c13.238-2.532,24.59,1.768,34.495,10.909l68.006,62.758
	c10.778,9.796,21.832,26.833,39.069,52.312c3.16,4.67,7.597,11.258,18.077,11.258h38.353v-31.749L462,261.614L411.083,312.44z
	 M350.526,165.243c24.083-4.605,39.874-27.865,35.268-51.949c-4.607-24.084-27.867-39.875-51.951-35.27
	c-24.084,4.607-39.874,27.867-35.268,51.951C303.183,154.061,326.442,169.851,350.526,165.243z"/>
</svg>
