<?php
header('Content-type: image/svg+xml');
echo '<?xml version="1.0" encoding="utf-8"?>';
?>


<!-- License Agreement at http://iconmonstr.com/license/ -->

<!DOCTYPE svg PUBLIC "-//W3C//DTD SVG 1.1//EN" "http://www.w3.org/Graphics/SVG/1.1/DTD/svg11.dtd">
<svg version="1.1" xmlns="http://www.w3.org/2000/svg" xmlns:xlink="http://www.w3.org/1999/xlink" x="0px" y="0px"
	 width="512px" height="512px" viewBox="0 0 512 512" style="enable-background:new 0 0 512 512;" xml:space="preserve">
<path <?php echo isset($_GET["color"]) == true ? 'style="fill: '.$_GET["color"].';"':"";?> id="paintbrush-7-icon" d="M204.45,290.082c0.168,18.959-15.104,34.466-34.089,34.583
	c-18.977,0.151-34.425-15.104-34.526-34.063c-0.168-18.969,15.096-34.417,34.023-34.593
	C188.842,255.882,204.349,271.154,204.45,290.082z M187.661,221.65c-18.96,0.134-34.476-15.113-34.593-34.115
	c-0.151-18.926,15.063-34.392,34.056-34.517c18.918-0.176,34.476,15.054,34.543,34.031
	C221.868,206.043,206.562,221.475,187.661,221.65z M324.665,152.741c0.066,18.927-15.12,34.476-34.081,34.601
	c-18.977,0.159-34.467-15.104-34.584-34.056c-0.185-18.985,15.071-34.433,34.082-34.584
	C308.975,118.593,324.497,133.823,324.665,152.741z M118.668,424.78c78.741,6.521,50.544-77.114,123.4-77.886l31.551,26.32
	C281.48,468.268,165.205,489.49,118.668,424.78z M360.121,302.639c24.493-38.433,100.367-167.332,100.367-167.332
	c6.035-10.687-7.377-21.852-16.748-13.965c0,0-112.822,98.087-146.098,129.176c-26.304,24.584-26.412,35.817-34.93,76.343
	l28.826,24.023C329.761,335.193,340.759,333.048,360.121,302.639z M143.445,385.151c-35.774-31.249-58.708-76.915-59.102-127.844
	c-0.754-94.583,75.64-172.176,170.298-172.947c65.883-0.352,111.23,32.699,111.515,59.169c10.411-9.128,20.151-17.644,28.55-24.986
	c-17.334-38.156-71.785-69.437-140.35-68.523C140.637,50.95,49.105,143.831,50.011,257.584
	c0.394,49.982,18.583,95.614,48.457,131.054C114.913,397.087,134.912,394.287,143.445,385.151z M363.122,352.427
	c18.172,33.83-23.201,57.837-60.853,68.531c-5.23,15.658-13.781,29.539-23.588,39.665c90.208-10.126,155.554-73.88,107.559-135.421
	C378.36,336.954,370.851,345.755,363.122,352.427z"/>
</svg>
