<?php
header('Content-type: image/svg+xml');
echo '<?xml version="1.0" encoding="utf-8"?>';
?>


<!-- The icon can be used freely in both personal and commercial projects with no attribution required, but always appreciated.
You may NOT sub-license, resell, rent, redistribute or otherwise transfer the icon without express written permission from iconmonstr.com -->

<!DOCTYPE svg PUBLIC "-//W3C//DTD SVG 1.1//EN" "http://www.w3.org/Graphics/SVG/1.1/DTD/svg11.dtd">
<svg version="1.1" xmlns="http://www.w3.org/2000/svg" xmlns:xlink="http://www.w3.org/1999/xlink" x="0px" y="0px"
	 width="512px" height="512px" viewBox="0 0 512 512" enable-background="new 0 0 512 512" xml:space="preserve">
<path fill="white" id="trash-can-15-icon" d="M407.299,86.735C385.938,65.374,326.266,50,255.996,50c-70.271,0-129.942,15.374-151.304,36.735
	c-10.641,10.641-8.277,18.72-6.331,29.874c8.944,51.25,44.276,245.224,56.189,311.598c36.188,45.058,165.662,45.058,201.849,0
	c12.036-64.394,48.812-264.504,57.468-313.307C415.383,106.363,418.086,97.522,407.299,86.735z M194.099,274.801l-8.955-5.871
	l33.177-0.143l14.185,30.257l-9.202-5.809c-13.136,20.805-18.655,32.003-14.458,45.026
	C175.695,305.646,179.359,298.674,194.099,274.801z M205.429,251.146l14.202-25.73c3.535-6.895,22.747-1.358,30.679,16.309
	l-14.485,26.237L205.429,251.146z M254.025,345.055h-31.459c-7.746,0.244-12.201-19.246-0.582-34.736h32.041V345.055z
	 M255.082,256.385l9.537-5.239c-11.846-21.565-18.973-31.813-32.402-34.446c44.585-13.22,47.164-7.429,62.667,17.812l9.474-4.991
	l-14.359,30.018L255.082,256.385z M310.706,256.478l16.568,26.742c4.286,6.457-9.934,20.509-29.222,18.79l-16.876-27.237
	L310.706,256.478z M282.547,344.42l-0.09,10.592l-18.681-29.332l19.15-26.675l-0.091,10.882c24.604,0.207,37.03-0.998,45.888-11.425
	C318.46,343.815,311.579,344.42,282.547,344.42z M256.804,138.358c-67.088,0-121.474-12.811-121.474-28.613
	c0-15.802,54.386-28.612,121.474-28.612c67.088,0,121.473,12.811,121.473,28.612C378.277,125.548,323.893,138.358,256.804,138.358z"
	/>
</svg>