<?php
header('Content-type: image/svg+xml');
echo '<?xml version="1.0" encoding="utf-8"?>';
?>


<!-- The icon can be used freely in both personal and commercial projects with no attribution required, but always appreciated.
You may NOT sub-license, resell, rent, redistribute or otherwise transfer the icon without express written permission from iconmonstr.com -->


<!DOCTYPE svg PUBLIC "-//W3C//DTD SVG 1.1//EN" "http://www.w3.org/Graphics/SVG/1.1/DTD/svg11.dtd">

<svg version="1.1" xmlns="http://www.w3.org/2000/svg" xmlns:xlink="http://www.w3.org/1999/xlink" x="0px" y="0px"

	 width="512px" height="512px" viewBox="0 0 512 512" enable-background="new 0 0 512 512" xml:space="preserve">

<path fill="white" id="check-mark-5-icon" d="M450.557,255.305c-12.232-12.448-14.957-31.401-6.728-46.792

	c5.871-10.981,6.281-24.073,1.108-35.399c-5.173-11.327-15.335-19.59-27.479-22.344c-17.021-3.859-29.561-18.33-30.958-35.728

	c-0.997-12.411-7.73-23.646-18.206-30.379c-10.475-6.731-23.492-8.189-35.196-3.94c-16.405,5.955-34.777,0.561-45.358-13.318

	C280.19,57.502,268.452,51.69,256,51.69c-12.451,0-24.19,5.812-31.74,15.714c-10.581,13.879-28.953,19.273-45.357,13.318

	c-11.705-4.249-24.723-2.791-35.197,3.94c-10.476,6.732-17.209,17.968-18.206,30.379c-1.397,17.397-13.937,31.868-30.958,35.728

	c-12.143,2.754-22.306,11.017-27.479,22.344c-5.173,11.326-4.763,24.418,1.109,35.399c8.229,15.391,5.504,34.344-6.729,46.792

	c-8.727,8.882-12.809,21.328-11.037,33.653c1.772,12.325,9.195,23.117,20.071,29.181c15.243,8.498,23.198,25.915,19.638,43.001

	c-2.539,12.19,0.756,24.867,8.91,34.278c8.154,9.41,20.232,14.476,32.66,13.696c17.419-1.092,33.527,9.26,39.77,25.559

	c4.453,11.628,14.08,20.511,26.027,24.02c11.947,3.508,24.848,1.238,34.881-6.136c14.062-10.336,33.211-10.336,47.273,0

	c10.033,7.374,22.934,9.644,34.881,6.136c11.948-3.509,21.573-12.392,26.027-24.02c6.242-16.299,22.351-26.65,39.77-25.559

	c12.427,0.779,24.506-4.286,32.66-13.696c8.154-9.411,11.449-22.088,8.91-34.278c-3.561-17.086,4.394-34.503,19.638-43.001

	c10.876-6.063,18.299-16.855,20.071-29.181C463.365,276.633,459.284,264.187,450.557,255.305z M221.835,356.363l-87.594-87.617

	l37.297-37.303l50.295,50.309l116.116-116.116l37.313,37.288L221.835,356.363z"/>

</svg>